HIERARCHY
ROOT hip
{
  OFFSET 0 0 0
  CHANNELS 6 Xposition Yposition Zposition Zrotation Yrotation Xrotation
  JOINT abdomen
  {
    OFFSET 0 20.6881 -0.73152
    CHANNELS 3 Zrotation Xrotation Yrotation
    JOINT chest
    {
      OFFSET 0 11.7043 -0.48768
      CHANNELS 3 Zrotation Xrotation Yrotation
      JOINT neck
      {
        OFFSET 0 22.1894 -2.19456
        CHANNELS 3 Zrotation Xrotation Yrotation
        JOINT head
        {
          OFFSET -0.24384 7.07133 1.2192
          CHANNELS 3 Zrotation Xrotation Yrotation
          JOINT leftEye
          {
            OFFSET 4.14528 8.04674 8.04672
            CHANNELS 3 Zrotation Xrotation Yrotation
            End Site
            {
              OFFSET 1 0 0
            }
          }
          JOINT rightEye
          {
            OFFSET -3.6576 8.04674 8.04672
            CHANNELS 3 Zrotation Xrotation Yrotation
            End Site
            {
              OFFSET 1 0 0
            }
          }
        }
      }
      JOINT rCollar
      {
        OFFSET -2.68224 19.2634 -4.8768
        CHANNELS 3 Zrotation Xrotation Yrotation
        JOINT rShldr
        {
          OFFSET -8.77824 -1.95073 1.46304
          CHANNELS 3 Zrotation Xrotation Yrotation
          JOINT rForeArm
          {
            OFFSET -28.1742 -1.7115 0.48768
            CHANNELS 3 Zrotation Xrotation Yrotation
            JOINT rHand
            {
              OFFSET -22.5879 0.773209 7.07136
              CHANNELS 3 Zrotation Xrotation Yrotation
              JOINT rThumb1
              {
                OFFSET -1.2192 -0.487915 3.41376
                CHANNELS 3 Zrotation Xrotation Yrotation
                JOINT rThumb2
                {
                  OFFSET -3.37035 -0.52449 3.41376
                  CHANNELS 3 Zrotation Xrotation Yrotation
                  End Site
                  {
                    OFFSET -1.78271 -1.18214 1.43049
                  }
                }
              }
              JOINT rIndex1
              {
                OFFSET -7.75947 0.938293 5.60832
                CHANNELS 3 Zrotation Xrotation Yrotation
                JOINT rIndex2
                {
                  OFFSET -2.54057 -0.884171 1.56538
                  CHANNELS 3 Zrotation Xrotation Yrotation
                  End Site
                  {
                    OFFSET -1.62519 -0.234802 1.16502
                  }
                }
              }
              JOINT rMid1
              {
                OFFSET -8.24714 1.18213 3.41376
                CHANNELS 3 Zrotation Xrotation Yrotation
                JOINT rMid2
                {
                  OFFSET -3.10165 -0.590103 1.0647
                  CHANNELS 3 Zrotation Xrotation Yrotation
                  End Site
                  {
                    OFFSET -2.48547 -0.328903 0.83742
                  }
                }
              }
              JOINT rRing1
              {
                OFFSET -8.82822 0.546677 1.51678
                CHANNELS 3 Zrotation Xrotation Yrotation
                JOINT rRing2
                {
                  OFFSET -2.60934 -0.819778 -0.0198488
                  CHANNELS 3 Zrotation Xrotation Yrotation
                  End Site
                  {
                    OFFSET -2.33842 -0.294052 0.168128
                  }
                }
              }
              JOINT rPinky1
              {
                OFFSET -8.27202 -0.0477905 -0.4584
                CHANNELS 3 Zrotation Xrotation Yrotation
                JOINT rPinky2
                {
                  OFFSET -1.82734 -0.647385 -0.700984
                  CHANNELS 3 Zrotation Xrotation Yrotation
                  End Site
                  {
                    OFFSET -1.69225 -0.51767 -0.607171
                  }
                }
              }
            }
          }
        }
      }
      JOINT lCollar
      {
        OFFSET 2.68224 19.2634 -4.8768
        CHANNELS 3 Zrotation Xrotation Yrotation
        JOINT lShldr
        {
          OFFSET 8.77824 -1.95073 1.46304
          CHANNELS 3 Zrotation Xrotation Yrotation
          JOINT lForeArm
          {
            OFFSET 28.1742 -1.7115 0.48768
            CHANNELS 3 Zrotation Xrotation Yrotation
            JOINT lHand
            {
              OFFSET 22.5879 0.773209 7.07136
              CHANNELS 3 Zrotation Xrotation Yrotation
              JOINT lThumb1
              {
                OFFSET 1.2192 -0.487915 3.41376
                CHANNELS 3 Zrotation Xrotation Yrotation
                JOINT lThumb2
                {
                  OFFSET 3.37035 -0.52449 3.41376
                  CHANNELS 3 Zrotation Xrotation Yrotation
                  End Site
                  {
                    OFFSET 1.78271 -1.18214 1.43049
                  }
                }
              }
              JOINT lIndex1
              {
                OFFSET 7.75947 0.938293 5.60832
                CHANNELS 3 Zrotation Xrotation Yrotation
                JOINT lIndex2
                {
                  OFFSET 2.54057 -0.884171 1.56538
                  CHANNELS 3 Zrotation Xrotation Yrotation
                  End Site
                  {
                    OFFSET 1.62519 -0.234802 1.16502
                  }
                }
              }
              JOINT lMid1
              {
                OFFSET 8.24714 1.18213 3.41376
                CHANNELS 3 Zrotation Xrotation Yrotation
                JOINT lMid2
                {
                  OFFSET 3.10165 -0.590103 1.0647
                  CHANNELS 3 Zrotation Xrotation Yrotation
                  End Site
                  {
                    OFFSET 2.48547 -0.328903 0.83742
                  }
                }
              }
              JOINT lRing1
              {
                OFFSET 8.82822 0.546677 1.51678
                CHANNELS 3 Zrotation Xrotation Yrotation
                JOINT lRing2
                {
                  OFFSET 2.60934 -0.819778 -0.0198488
                  CHANNELS 3 Zrotation Xrotation Yrotation
                  End Site
                  {
                    OFFSET 2.33842 -0.294052 0.168128
                  }
                }
              }
              JOINT lPinky1
              {
                OFFSET 8.27202 -0.0477905 -0.4584
                CHANNELS 3 Zrotation Xrotation Yrotation
                JOINT lPinky2
                {
                  OFFSET 1.82734 -0.647385 -0.700984
                  CHANNELS 3 Zrotation Xrotation Yrotation
                  End Site
                  {
                    OFFSET 1.69225 -0.51767 -0.607171
                  }
                }
              }
            }
          }
        }
      }
    }
  }
  JOINT rButtock
  {
    OFFSET -8.77824 4.35084 1.2192
    CHANNELS 3 Zrotation Xrotation Yrotation
    JOINT rThigh
    {
      OFFSET 0 -1.70687 -2.19456
      CHANNELS 3 Zrotation Xrotation Yrotation
      JOINT rShin
      {
        OFFSET 0 -36.8199 0.73152
        CHANNELS 3 Zrotation Xrotation Yrotation
        JOINT rFoot
        {
          OFFSET 0.73152 -45.1104 -5.12064
          CHANNELS 3 Zrotation Xrotation Yrotation
          End Site
          {
            OFFSET -1.1221 -3.69964 12.103
          }
        }
      }
    }
  }
  JOINT lButtock
  {
    OFFSET 8.77824 4.35084 1.2192
    CHANNELS 3 Zrotation Xrotation Yrotation
    JOINT lThigh
    {
      OFFSET 0 -1.70687 -2.19456
      CHANNELS 3 Zrotation Xrotation Yrotation
      JOINT lShin
      {
        OFFSET 0 -36.8199 0.73152
        CHANNELS 3 Zrotation Xrotation Yrotation
        JOINT lFoot
        {
          OFFSET -0.73152 -45.1104 -5.12064
          CHANNELS 3 Zrotation Xrotation Yrotation
          End Site
          {
            OFFSET 1.1221 -3.69964 12.103
          }
        }
      }
    }
  }
}
MOTION
Frames:	4
Frame Time:	0.03333
-21.1892 60.8047 6.401999999999999 170.425513 -43.775952 -172.906787 -14.712089 13.177712 -0.0 5.000259 -10.098889 -0.47023 -10.491203 29.776272 -79.112085 37.400698 -2.90284 39.72897 -2.585457 0.453822 -19.908075 -18.72184 3.013743 -18.133253 -16.888606 56.345956 16.959412 66.123913 -17.613851 49.505258 159.025438 2.000271 106.064737 175.7384 -0.307267 145.93013 -85.939098 39.902608 60.054458 -6.967073 -18.039636 4.625913 -3.307408 30.646772 16.114581 178.853066 12.721701 106.105697 -156.624886 -31.39485 152.337219 -141.043169 -11.189786 147.386538 -137.565511 -36.977279 -156.557084 30.560248 33.087715 -2.580453 69.542312 70.598382 -28.581938 -170.944964 5.403524 -130.023936 -53.523153 -87.219698 -33.186201 -105.595126 34.121409 93.851701 4.174228 2.053777 -39.595882 2.692789 27.520543 3.156156 -12.202763 -13.437082 -0.916366 -4.405561 -18.999644 0.216408 -27.07107 -50.270585 -8.637018 173.585459 -25.551693 -124.636154 -2.573657 -40.641995 5.654558 28.989343 60.27186 -48.888503 148.217485 4.7253 -177.756222 73.191382 -59.880847 103.403677 -4.519655 27.749021 -36.415212 31.371263 -31.522325 41.886083 36.857804 5.01924 17.329686 -93.372922 -40.338054 175.305991 -64.712815 -50.442787 31.924894 8.424566 -24.926327 99.032646 82.573004 33.699799 43.70294 -64.002624 43.057518 -37.720372 13.683714 36.82905 48.354654 -90.303357 8.976108 -13.510234
-21.1891 60.77590000000001 6.6509 170.644284 -43.890984 -173.124806 -12.231521 10.34598 -103.929707 6.375277 4.397147 102.227967 -5.404426 20.653075 -22.621167 10.085456 -26.625258 -16.667854 -2.691477 0.456493 -19.248935 -19.228871 3.354357 -19.613656 -0.532983 -0.401275 -5.913033 58.815338 12.427913 4.314288 170.750242 -0.573474 103.64433 171.43314 -14.072432 144.953013 -177.071911 -30.589195 88.775777 89.511189 -69.580458 47.981036 -29.923618 44.241277 39.919131 -3.949564 -46.903698 -10.343213 6.069881 10.179622 -3.010394 4.305143 -44.754885 10.779668 -0.152711 16.078245 0.222883 -148.714422 62.399889 142.62136 26.489595 38.603882 -3.41372 -143.031699 -40.430243 -118.900512 126.015994 51.510899 -127.520282 -47.005354 -30.047869 -90.714905 -17.20835 -66.143699 -51.557103 7.512371 41.328094 1.810875 -0.922852 -2.250744 -0.498618 152.318496 -37.209214 -101.930348 -55.092882 -64.307422 -25.861291 1.028365 -0.111103 10.919799 77.351555 62.144967 -61.490698 59.662586 40.035136 -41.37443 2.904964 -0.899251 -0.4185 147.337103 36.362613 -143.201121 121.677999 45.715143 -175.888739 126.938714 -5.348477 144.499305 4.621498 2.125757 -6.133303 -52.799108 -62.913262 124.051227 33.105423 -63.75911 -116.782629 100.091481 -36.420067 -7.939084 157.843167 70.929683 23.309285 -134.577616 82.484298 -0.0 31.258557 37.861729 118.079342 155.141971 38.801311 112.776015
-20.9061 60.5633 7.0379 170.298324 -45.288362 -172.017953 -15.004839 12.809915 2.778147 4.950752 -10.380515 -3.06379 -6.633945 21.556671 -34.446758 17.412001 -23.273796 -3.810994 -3.518368 0.437699 -14.178425 -19.135263 3.527374 -20.70528 -155.702936 -24.088727 172.763548 -38.807439 -2.317257 -12.677396 25.153426 -6.819735 -69.647514 174.275022 -5.24996 145.499439 -23.947518 32.310368 15.264224 4.877714 -30.722734 -2.469401 -141.837484 -37.59088 124.187401 -43.914925 77.884641 54.10606 -161.774435 -66.80965 152.594331 -140.443154 -13.161458 131.460279 -62.098848 76.585136 78.481946 2.501348 30.549148 -18.06684 -14.873517 -27.539145 -27.0571 -59.100742 69.851416 91.750355 28.878732 48.426908 -31.065489 141.111711 -27.638272 -114.304362 -54.302132 -8.59039 38.55891 -178.75392 28.54886 -145.48172 8.954531 6.94052 -1.620809 125.141206 -13.497976 -90.277263 -1.38635 -22.457486 -3.820632 162.184571 -24.80783 -128.684777 7.238496 0.598215 0.071854 176.462768 -44.597569 -124.87735 149.763797 1.636036 -179.737202 177.526832 58.398022 153.472016 67.331276 69.188554 -112.489148 69.571618 -49.185434 81.677833 0.578189 4.279312 -7.702114 -46.947028 -66.599708 -142.782578 -67.623386 -13.457212 116.192397 -110.121899 -11.26386 24.912472 117.183058 58.560159 44.305909 -94.109817 64.460427 -180.0 -44.120465 -24.009872 -114.648004 -32.433461 -5.860116 -99.465359
-20.4882 60.364799999999995 7.4752 170.096628 -45.936763 -171.419411 -15.124877 12.826509 2.805787 4.944136 -10.564227 -3.072535 -6.915114 34.757561 -117.718181 38.506675 18.627156 69.519434 -6.4462 0.577256 -10.223696 -18.773642 4.327684 -25.748943 -154.841837 12.795577 164.754432 144.354414 5.033976 161.672701 171.950681 -11.239316 101.473607 170.413174 -17.390437 144.387102 -171.000028 -24.671616 89.771596 -89.236763 14.368516 48.978236 -141.878232 -37.739178 123.843282 -2.653201 74.29806 13.258997 4.434495 27.446838 1.087308 -167.429099 47.736667 124.11438 -145.451597 -11.047208 -172.471498 -122.147812 -46.556028 -160.930859 13.260289 9.152177 -6.464903 -34.018346 -45.926118 -9.448577 -3.927657 -26.489315 -1.813823 -78.519362 12.330729 20.789759 2.013876 11.406991 -39.876355 3.006129 31.116856 3.720078 175.388034 -11.316114 -89.600375 169.688351 -25.023672 -108.362056 -85.864975 -67.990825 -50.885258 91.621046 57.142861 -61.831346 44.969455 52.031551 -32.776722 103.523188 47.86835 -89.136996 150.048551 6.861192 -176.10749 117.344886 -49.560366 141.427701 89.488786 -70.675928 92.413408 136.505577 -32.712004 133.417336 96.117822 44.092853 43.940533 -156.502315 0.1826 0.415518 48.996215 67.711454 -145.027333 8.660602 60.883304 87.56954 137.984733 65.920831 35.157927 -118.269077 73.450052 117.269774 12.506432 -42.985503 -88.06649 123.208409 -39.231189 19.177607
